<?xml version="1.0" encoding="UTF-8"?>
<svg xmlns="http://www.w3.org/2000/svg" width="1200" height="778" viewBox="0 0 1200 778" role="img" aria-label="OPT-350M abs_max by dataset and layer">
<title>OPT-350M abs_max by dataset and layer</title>
<rect width="100%" height="100%" fill="#ffffff"/>
<text x="24.00" y="34.00" font-family="Arial, Helvetica, sans-serif" font-size="22" text-anchor="start" font-weight="bold" fill="#1f2937">OPT-350M abs_max by dataset and layer</text>
<rect x="24.00" y="60.00" width="1152.00" height="320.00" fill="#fafafa" stroke="#e5e7eb"/>
<text x="36.00" y="84.00" font-family="Arial, Helvetica, sans-serif" font-size="18" text-anchor="start" font-weight="bold" fill="#1f2937">key</text>
<text x="36.00" y="104.00" font-family="Arial, Helvetica, sans-serif" font-size="12" text-anchor="start" font-weight="normal" fill="#4b5563">Mean abs_max</text>
<line x1="110.00" y1="312.00" x2="110.00" y2="318.00" stroke="#6b7280" stroke-width="1"/>
<text x="110.00" y="334.00" font-family="Arial, Helvetica, sans-serif" font-size="10" text-anchor="middle" font-weight="normal" fill="#6b7280">0</text>
<line x1="245.39" y1="312.00" x2="245.39" y2="318.00" stroke="#6b7280" stroke-width="1"/>
<text x="245.39" y="334.00" font-family="Arial, Helvetica, sans-serif" font-size="10" text-anchor="middle" font-weight="normal" fill="#6b7280">3</text>
<line x1="380.78" y1="312.00" x2="380.78" y2="318.00" stroke="#6b7280" stroke-width="1"/>
<text x="380.78" y="334.00" font-family="Arial, Helvetica, sans-serif" font-size="10" text-anchor="middle" font-weight="normal" fill="#6b7280">6</text>
<line x1="516.17" y1="312.00" x2="516.17" y2="318.00" stroke="#6b7280" stroke-width="1"/>
<text x="516.17" y="334.00" font-family="Arial, Helvetica, sans-serif" font-size="10" text-anchor="middle" font-weight="normal" fill="#6b7280">9</text>
<line x1="651.57" y1="312.00" x2="651.57" y2="318.00" stroke="#6b7280" stroke-width="1"/>
<text x="651.57" y="334.00" font-family="Arial, Helvetica, sans-serif" font-size="10" text-anchor="middle" font-weight="normal" fill="#6b7280">12</text>
<line x1="786.96" y1="312.00" x2="786.96" y2="318.00" stroke="#6b7280" stroke-width="1"/>
<text x="786.96" y="334.00" font-family="Arial, Helvetica, sans-serif" font-size="10" text-anchor="middle" font-weight="normal" fill="#6b7280">15</text>
<line x1="922.35" y1="312.00" x2="922.35" y2="318.00" stroke="#6b7280" stroke-width="1"/>
<text x="922.35" y="334.00" font-family="Arial, Helvetica, sans-serif" font-size="10" text-anchor="middle" font-weight="normal" fill="#6b7280">18</text>
<line x1="1057.74" y1="312.00" x2="1057.74" y2="318.00" stroke="#6b7280" stroke-width="1"/>
<text x="1057.74" y="334.00" font-family="Arial, Helvetica, sans-serif" font-size="10" text-anchor="middle" font-weight="normal" fill="#6b7280">21</text>
<line x1="1148.00" y1="312.00" x2="1148.00" y2="318.00" stroke="#6b7280" stroke-width="1"/>
<text x="1148.00" y="334.00" font-family="Arial, Helvetica, sans-serif" font-size="10" text-anchor="middle" font-weight="normal" fill="#6b7280">23</text>
<line x1="105.00" y1="312.00" x2="110.00" y2="312.00" stroke="#6b7280" stroke-width="1"/>
<line x1="110.00" y1="312.00" x2="1148.00" y2="312.00" stroke="#e5e7eb" stroke-width="1"/>
<text x="100.00" y="316.00" font-family="Arial, Helvetica, sans-serif" font-size="10" text-anchor="end" font-weight="normal" fill="#6b7280">0.00</text>
<line x1="105.00" y1="263.00" x2="110.00" y2="263.00" stroke="#6b7280" stroke-width="1"/>
<line x1="110.00" y1="263.00" x2="1148.00" y2="263.00" stroke="#e5e7eb" stroke-width="1"/>
<text x="100.00" y="267.00" font-family="Arial, Helvetica, sans-serif" font-size="10" text-anchor="end" font-weight="normal" fill="#6b7280">0.55</text>
<line x1="105.00" y1="214.00" x2="110.00" y2="214.00" stroke="#6b7280" stroke-width="1"/>
<line x1="110.00" y1="214.00" x2="1148.00" y2="214.00" stroke="#e5e7eb" stroke-width="1"/>
<text x="100.00" y="218.00" font-family="Arial, Helvetica, sans-serif" font-size="10" text-anchor="end" font-weight="normal" fill="#6b7280">1.11</text>
<line x1="105.00" y1="165.00" x2="110.00" y2="165.00" stroke="#6b7280" stroke-width="1"/>
<line x1="110.00" y1="165.00" x2="1148.00" y2="165.00" stroke="#e5e7eb" stroke-width="1"/>
<text x="100.00" y="169.00" font-family="Arial, Helvetica, sans-serif" font-size="10" text-anchor="end" font-weight="normal" fill="#6b7280">1.66</text>
<line x1="105.00" y1="116.00" x2="110.00" y2="116.00" stroke="#6b7280" stroke-width="1"/>
<line x1="110.00" y1="116.00" x2="1148.00" y2="116.00" stroke="#e5e7eb" stroke-width="1"/>
<text x="100.00" y="120.00" font-family="Arial, Helvetica, sans-serif" font-size="10" text-anchor="end" font-weight="normal" fill="#6b7280">2.22</text>
<polyline fill="none" stroke="#2f6fdb" stroke-width="2.5" stroke-linejoin="round" stroke-linecap="round" points="110.00,285.27 155.13,128.76 200.26,143.93 245.39,154.96 290.52,149.81 335.65,152.86 380.78,116.00 425.91,130.03 471.04,139.03 516.17,145.10 561.30,189.09 606.43,191.98 651.57,202.61 696.70,200.10 741.83,211.39 786.96,208.75 832.09,208.74 877.22,207.19 922.35,207.89 967.48,192.78 1012.61,164.98 1057.74,163.99 1102.87,161.18 1148.00,198.57"/>
<circle cx="110.00" cy="285.27" r="2.8" fill="#2f6fdb"/>
<circle cx="155.13" cy="128.76" r="2.8" fill="#2f6fdb"/>
<circle cx="200.26" cy="143.93" r="2.8" fill="#2f6fdb"/>
<circle cx="245.39" cy="154.96" r="2.8" fill="#2f6fdb"/>
<circle cx="290.52" cy="149.81" r="2.8" fill="#2f6fdb"/>
<circle cx="335.65" cy="152.86" r="2.8" fill="#2f6fdb"/>
<circle cx="380.78" cy="116.00" r="2.8" fill="#2f6fdb"/>
<circle cx="425.91" cy="130.03" r="2.8" fill="#2f6fdb"/>
<circle cx="471.04" cy="139.03" r="2.8" fill="#2f6fdb"/>
<circle cx="516.17" cy="145.10" r="2.8" fill="#2f6fdb"/>
<circle cx="561.30" cy="189.09" r="2.8" fill="#2f6fdb"/>
<circle cx="606.43" cy="191.98" r="2.8" fill="#2f6fdb"/>
<circle cx="651.57" cy="202.61" r="2.8" fill="#2f6fdb"/>
<circle cx="696.70" cy="200.10" r="2.8" fill="#2f6fdb"/>
<circle cx="741.83" cy="211.39" r="2.8" fill="#2f6fdb"/>
<circle cx="786.96" cy="208.75" r="2.8" fill="#2f6fdb"/>
<circle cx="832.09" cy="208.74" r="2.8" fill="#2f6fdb"/>
<circle cx="877.22" cy="207.19" r="2.8" fill="#2f6fdb"/>
<circle cx="922.35" cy="207.89" r="2.8" fill="#2f6fdb"/>
<circle cx="967.48" cy="192.78" r="2.8" fill="#2f6fdb"/>
<circle cx="1012.61" cy="164.98" r="2.8" fill="#2f6fdb"/>
<circle cx="1057.74" cy="163.99" r="2.8" fill="#2f6fdb"/>
<circle cx="1102.87" cy="161.18" r="2.8" fill="#2f6fdb"/>
<circle cx="1148.00" cy="198.57" r="2.8" fill="#2f6fdb"/>
<polyline fill="none" stroke="#d94841" stroke-width="2.5" stroke-linejoin="round" stroke-linecap="round" points="110.00,277.81 155.13,165.71 200.26,157.19 245.39,178.88 290.52,182.22 335.65,191.15 380.78,169.89 425.91,160.15 471.04,171.51 516.17,158.03 561.30,199.64 606.43,198.47 651.57,212.40 696.70,210.59 741.83,217.78 786.96,221.00 832.09,219.03 877.22,220.47 922.35,218.17 967.48,211.15 1012.61,201.11 1057.74,200.40 1102.87,190.33 1148.00,207.39"/>
<circle cx="110.00" cy="277.81" r="2.8" fill="#d94841"/>
<circle cx="155.13" cy="165.71" r="2.8" fill="#d94841"/>
<circle cx="200.26" cy="157.19" r="2.8" fill="#d94841"/>
<circle cx="245.39" cy="178.88" r="2.8" fill="#d94841"/>
<circle cx="290.52" cy="182.22" r="2.8" fill="#d94841"/>
<circle cx="335.65" cy="191.15" r="2.8" fill="#d94841"/>
<circle cx="380.78" cy="169.89" r="2.8" fill="#d94841"/>
<circle cx="425.91" cy="160.15" r="2.8" fill="#d94841"/>
<circle cx="471.04" cy="171.51" r="2.8" fill="#d94841"/>
<circle cx="516.17" cy="158.03" r="2.8" fill="#d94841"/>
<circle cx="561.30" cy="199.64" r="2.8" fill="#d94841"/>
<circle cx="606.43" cy="198.47" r="2.8" fill="#d94841"/>
<circle cx="651.57" cy="212.40" r="2.8" fill="#d94841"/>
<circle cx="696.70" cy="210.59" r="2.8" fill="#d94841"/>
<circle cx="741.83" cy="217.78" r="2.8" fill="#d94841"/>
<circle cx="786.96" cy="221.00" r="2.8" fill="#d94841"/>
<circle cx="832.09" cy="219.03" r="2.8" fill="#d94841"/>
<circle cx="877.22" cy="220.47" r="2.8" fill="#d94841"/>
<circle cx="922.35" cy="218.17" r="2.8" fill="#d94841"/>
<circle cx="967.48" cy="211.15" r="2.8" fill="#d94841"/>
<circle cx="1012.61" cy="201.11" r="2.8" fill="#d94841"/>
<circle cx="1057.74" cy="200.40" r="2.8" fill="#d94841"/>
<circle cx="1102.87" cy="190.33" r="2.8" fill="#d94841"/>
<circle cx="1148.00" cy="207.39" r="2.8" fill="#d94841"/>
<polyline fill="none" stroke="#2ca25f" stroke-width="2.5" stroke-linejoin="round" stroke-linecap="round" points="110.00,281.17 155.13,158.70 200.26,153.87 245.39,171.14 290.52,173.83 335.65,175.59 380.78,151.05 425.91,147.43 471.04,162.89 516.17,149.26 561.30,192.19 606.43,193.77 651.57,206.89 696.70,202.91 741.83,212.57 786.96,216.33 832.09,213.55 877.22,212.96 922.35,209.12 967.48,204.58 1012.61,192.89 1057.74,194.56 1102.87,183.54 1148.00,201.78"/>
<circle cx="110.00" cy="281.17" r="2.8" fill="#2ca25f"/>
<circle cx="155.13" cy="158.70" r="2.8" fill="#2ca25f"/>
<circle cx="200.26" cy="153.87" r="2.8" fill="#2ca25f"/>
<circle cx="245.39" cy="171.14" r="2.8" fill="#2ca25f"/>
<circle cx="290.52" cy="173.83" r="2.8" fill="#2ca25f"/>
<circle cx="335.65" cy="175.59" r="2.8" fill="#2ca25f"/>
<circle cx="380.78" cy="151.05" r="2.8" fill="#2ca25f"/>
<circle cx="425.91" cy="147.43" r="2.8" fill="#2ca25f"/>
<circle cx="471.04" cy="162.89" r="2.8" fill="#2ca25f"/>
<circle cx="516.17" cy="149.26" r="2.8" fill="#2ca25f"/>
<circle cx="561.30" cy="192.19" r="2.8" fill="#2ca25f"/>
<circle cx="606.43" cy="193.77" r="2.8" fill="#2ca25f"/>
<circle cx="651.57" cy="206.89" r="2.8" fill="#2ca25f"/>
<circle cx="696.70" cy="202.91" r="2.8" fill="#2ca25f"/>
<circle cx="741.83" cy="212.57" r="2.8" fill="#2ca25f"/>
<circle cx="786.96" cy="216.33" r="2.8" fill="#2ca25f"/>
<circle cx="832.09" cy="213.55" r="2.8" fill="#2ca25f"/>
<circle cx="877.22" cy="212.96" r="2.8" fill="#2ca25f"/>
<circle cx="922.35" cy="209.12" r="2.8" fill="#2ca25f"/>
<circle cx="967.48" cy="204.58" r="2.8" fill="#2ca25f"/>
<circle cx="1012.61" cy="192.89" r="2.8" fill="#2ca25f"/>
<circle cx="1057.74" cy="194.56" r="2.8" fill="#2ca25f"/>
<circle cx="1102.87" cy="183.54" r="2.8" fill="#2ca25f"/>
<circle cx="1148.00" cy="201.78" r="2.8" fill="#2ca25f"/>
<rect x="976.00" y="76.00" width="12" height="12" fill="#2f6fdb"/>
<text x="994.00" y="86.00" font-family="Arial, Helvetica, sans-serif" font-size="12" text-anchor="start" font-weight="normal" fill="#374151">wikitext</text>
<rect x="976.00" y="96.00" width="12" height="12" fill="#d94841"/>
<text x="994.00" y="106.00" font-family="Arial, Helvetica, sans-serif" font-size="12" text-anchor="start" font-weight="normal" fill="#374151">winogrande</text>
<rect x="976.00" y="116.00" width="12" height="12" fill="#2ca25f"/>
<text x="994.00" y="126.00" font-family="Arial, Helvetica, sans-serif" font-size="12" text-anchor="start" font-weight="normal" fill="#374151">hellaswag</text>
<rect x="24.00" y="428.00" width="1152.00" height="320.00" fill="#fafafa" stroke="#e5e7eb"/>
<text x="36.00" y="452.00" font-family="Arial, Helvetica, sans-serif" font-size="18" text-anchor="start" font-weight="bold" fill="#1f2937">value</text>
<text x="36.00" y="472.00" font-family="Arial, Helvetica, sans-serif" font-size="12" text-anchor="start" font-weight="normal" fill="#4b5563">Mean abs_max</text>
<line x1="110.00" y1="680.00" x2="110.00" y2="686.00" stroke="#6b7280" stroke-width="1"/>
<text x="110.00" y="702.00" font-family="Arial, Helvetica, sans-serif" font-size="10" text-anchor="middle" font-weight="normal" fill="#6b7280">0</text>
<line x1="245.39" y1="680.00" x2="245.39" y2="686.00" stroke="#6b7280" stroke-width="1"/>
<text x="245.39" y="702.00" font-family="Arial, Helvetica, sans-serif" font-size="10" text-anchor="middle" font-weight="normal" fill="#6b7280">3</text>
<line x1="380.78" y1="680.00" x2="380.78" y2="686.00" stroke="#6b7280" stroke-width="1"/>
<text x="380.78" y="702.00" font-family="Arial, Helvetica, sans-serif" font-size="10" text-anchor="middle" font-weight="normal" fill="#6b7280">6</text>
<line x1="516.17" y1="680.00" x2="516.17" y2="686.00" stroke="#6b7280" stroke-width="1"/>
<text x="516.17" y="702.00" font-family="Arial, Helvetica, sans-serif" font-size="10" text-anchor="middle" font-weight="normal" fill="#6b7280">9</text>
<line x1="651.57" y1="680.00" x2="651.57" y2="686.00" stroke="#6b7280" stroke-width="1"/>
<text x="651.57" y="702.00" font-family="Arial, Helvetica, sans-serif" font-size="10" text-anchor="middle" font-weight="normal" fill="#6b7280">12</text>
<line x1="786.96" y1="680.00" x2="786.96" y2="686.00" stroke="#6b7280" stroke-width="1"/>
<text x="786.96" y="702.00" font-family="Arial, Helvetica, sans-serif" font-size="10" text-anchor="middle" font-weight="normal" fill="#6b7280">15</text>
<line x1="922.35" y1="680.00" x2="922.35" y2="686.00" stroke="#6b7280" stroke-width="1"/>
<text x="922.35" y="702.00" font-family="Arial, Helvetica, sans-serif" font-size="10" text-anchor="middle" font-weight="normal" fill="#6b7280">18</text>
<line x1="1057.74" y1="680.00" x2="1057.74" y2="686.00" stroke="#6b7280" stroke-width="1"/>
<text x="1057.74" y="702.00" font-family="Arial, Helvetica, sans-serif" font-size="10" text-anchor="middle" font-weight="normal" fill="#6b7280">21</text>
<line x1="1148.00" y1="680.00" x2="1148.00" y2="686.00" stroke="#6b7280" stroke-width="1"/>
<text x="1148.00" y="702.00" font-family="Arial, Helvetica, sans-serif" font-size="10" text-anchor="middle" font-weight="normal" fill="#6b7280">23</text>
<line x1="105.00" y1="680.00" x2="110.00" y2="680.00" stroke="#6b7280" stroke-width="1"/>
<line x1="110.00" y1="680.00" x2="1148.00" y2="680.00" stroke="#e5e7eb" stroke-width="1"/>
<text x="100.00" y="684.00" font-family="Arial, Helvetica, sans-serif" font-size="10" text-anchor="end" font-weight="normal" fill="#6b7280">0.00</text>
<line x1="105.00" y1="631.00" x2="110.00" y2="631.00" stroke="#6b7280" stroke-width="1"/>
<line x1="110.00" y1="631.00" x2="1148.00" y2="631.00" stroke="#e5e7eb" stroke-width="1"/>
<text x="100.00" y="635.00" font-family="Arial, Helvetica, sans-serif" font-size="10" text-anchor="end" font-weight="normal" fill="#6b7280">0.16</text>
<line x1="105.00" y1="582.00" x2="110.00" y2="582.00" stroke="#6b7280" stroke-width="1"/>
<line x1="110.00" y1="582.00" x2="1148.00" y2="582.00" stroke="#e5e7eb" stroke-width="1"/>
<text x="100.00" y="586.00" font-family="Arial, Helvetica, sans-serif" font-size="10" text-anchor="end" font-weight="normal" fill="#6b7280">0.32</text>
<line x1="105.00" y1="533.00" x2="110.00" y2="533.00" stroke="#6b7280" stroke-width="1"/>
<line x1="110.00" y1="533.00" x2="1148.00" y2="533.00" stroke="#e5e7eb" stroke-width="1"/>
<text x="100.00" y="537.00" font-family="Arial, Helvetica, sans-serif" font-size="10" text-anchor="end" font-weight="normal" fill="#6b7280">0.48</text>
<line x1="105.00" y1="484.00" x2="110.00" y2="484.00" stroke="#6b7280" stroke-width="1"/>
<line x1="110.00" y1="484.00" x2="1148.00" y2="484.00" stroke="#e5e7eb" stroke-width="1"/>
<text x="100.00" y="488.00" font-family="Arial, Helvetica, sans-serif" font-size="10" text-anchor="end" font-weight="normal" fill="#6b7280">0.64</text>
<polyline fill="none" stroke="#2f6fdb" stroke-width="2.5" stroke-linejoin="round" stroke-linecap="round" points="110.00,674.86 155.13,538.18 200.26,525.91 245.39,520.63 290.52,519.75 335.65,516.39 380.78,531.49 425.91,533.76 471.04,535.80 516.17,520.71 561.30,504.47 606.43,504.97 651.57,484.43 696.70,494.35 741.83,484.00 786.96,489.61 832.09,485.31 877.22,489.59 922.35,492.99 967.48,502.09 1012.61,515.32 1057.74,513.10 1102.87,528.50 1148.00,514.54"/>
<circle cx="110.00" cy="674.86" r="2.8" fill="#2f6fdb"/>
<circle cx="155.13" cy="538.18" r="2.8" fill="#2f6fdb"/>
<circle cx="200.26" cy="525.91" r="2.8" fill="#2f6fdb"/>
<circle cx="245.39" cy="520.63" r="2.8" fill="#2f6fdb"/>
<circle cx="290.52" cy="519.75" r="2.8" fill="#2f6fdb"/>
<circle cx="335.65" cy="516.39" r="2.8" fill="#2f6fdb"/>
<circle cx="380.78" cy="531.49" r="2.8" fill="#2f6fdb"/>
<circle cx="425.91" cy="533.76" r="2.8" fill="#2f6fdb"/>
<circle cx="471.04" cy="535.80" r="2.8" fill="#2f6fdb"/>
<circle cx="516.17" cy="520.71" r="2.8" fill="#2f6fdb"/>
<circle cx="561.30" cy="504.47" r="2.8" fill="#2f6fdb"/>
<circle cx="606.43" cy="504.97" r="2.8" fill="#2f6fdb"/>
<circle cx="651.57" cy="484.43" r="2.8" fill="#2f6fdb"/>
<circle cx="696.70" cy="494.35" r="2.8" fill="#2f6fdb"/>
<circle cx="741.83" cy="484.00" r="2.8" fill="#2f6fdb"/>
<circle cx="786.96" cy="489.61" r="2.8" fill="#2f6fdb"/>
<circle cx="832.09" cy="485.31" r="2.8" fill="#2f6fdb"/>
<circle cx="877.22" cy="489.59" r="2.8" fill="#2f6fdb"/>
<circle cx="922.35" cy="492.99" r="2.8" fill="#2f6fdb"/>
<circle cx="967.48" cy="502.09" r="2.8" fill="#2f6fdb"/>
<circle cx="1012.61" cy="515.32" r="2.8" fill="#2f6fdb"/>
<circle cx="1057.74" cy="513.10" r="2.8" fill="#2f6fdb"/>
<circle cx="1102.87" cy="528.50" r="2.8" fill="#2f6fdb"/>
<circle cx="1148.00" cy="514.54" r="2.8" fill="#2f6fdb"/>
<polyline fill="none" stroke="#d94841" stroke-width="2.5" stroke-linejoin="round" stroke-linecap="round" points="110.00,675.26 155.13,542.92 200.26,529.08 245.39,522.96 290.52,521.50 335.65,511.27 380.78,522.77 425.91,537.18 471.04,542.10 516.17,524.91 561.30,511.93 606.43,520.72 651.57,503.03 696.70,513.94 741.83,504.18 786.96,510.68 832.09,510.18 877.22,512.54 922.35,517.53 967.48,524.15 1012.61,528.38 1057.74,524.57 1102.87,542.05 1148.00,530.79"/>
<circle cx="110.00" cy="675.26" r="2.8" fill="#d94841"/>
<circle cx="155.13" cy="542.92" r="2.8" fill="#d94841"/>
<circle cx="200.26" cy="529.08" r="2.8" fill="#d94841"/>
<circle cx="245.39" cy="522.96" r="2.8" fill="#d94841"/>
<circle cx="290.52" cy="521.50" r="2.8" fill="#d94841"/>
<circle cx="335.65" cy="511.27" r="2.8" fill="#d94841"/>
<circle cx="380.78" cy="522.77" r="2.8" fill="#d94841"/>
<circle cx="425.91" cy="537.18" r="2.8" fill="#d94841"/>
<circle cx="471.04" cy="542.10" r="2.8" fill="#d94841"/>
<circle cx="516.17" cy="524.91" r="2.8" fill="#d94841"/>
<circle cx="561.30" cy="511.93" r="2.8" fill="#d94841"/>
<circle cx="606.43" cy="520.72" r="2.8" fill="#d94841"/>
<circle cx="651.57" cy="503.03" r="2.8" fill="#d94841"/>
<circle cx="696.70" cy="513.94" r="2.8" fill="#d94841"/>
<circle cx="741.83" cy="504.18" r="2.8" fill="#d94841"/>
<circle cx="786.96" cy="510.68" r="2.8" fill="#d94841"/>
<circle cx="832.09" cy="510.18" r="2.8" fill="#d94841"/>
<circle cx="877.22" cy="512.54" r="2.8" fill="#d94841"/>
<circle cx="922.35" cy="517.53" r="2.8" fill="#d94841"/>
<circle cx="967.48" cy="524.15" r="2.8" fill="#d94841"/>
<circle cx="1012.61" cy="528.38" r="2.8" fill="#d94841"/>
<circle cx="1057.74" cy="524.57" r="2.8" fill="#d94841"/>
<circle cx="1102.87" cy="542.05" r="2.8" fill="#d94841"/>
<circle cx="1148.00" cy="530.79" r="2.8" fill="#d94841"/>
<polyline fill="none" stroke="#2ca25f" stroke-width="2.5" stroke-linejoin="round" stroke-linecap="round" points="110.00,675.26 155.13,542.69 200.26,530.81 245.39,524.20 290.52,520.80 335.65,516.94 380.78,524.65 425.91,536.49 471.04,538.95 516.17,523.14 561.30,508.94 606.43,516.14 651.57,497.41 696.70,506.19 741.83,498.00 786.96,503.31 832.09,499.09 877.22,505.12 922.35,508.20 967.48,517.59 1012.61,521.61 1057.74,519.16 1102.87,535.03 1148.00,522.30"/>
<circle cx="110.00" cy="675.26" r="2.8" fill="#2ca25f"/>
<circle cx="155.13" cy="542.69" r="2.8" fill="#2ca25f"/>
<circle cx="200.26" cy="530.81" r="2.8" fill="#2ca25f"/>
<circle cx="245.39" cy="524.20" r="2.8" fill="#2ca25f"/>
<circle cx="290.52" cy="520.80" r="2.8" fill="#2ca25f"/>
<circle cx="335.65" cy="516.94" r="2.8" fill="#2ca25f"/>
<circle cx="380.78" cy="524.65" r="2.8" fill="#2ca25f"/>
<circle cx="425.91" cy="536.49" r="2.8" fill="#2ca25f"/>
<circle cx="471.04" cy="538.95" r="2.8" fill="#2ca25f"/>
<circle cx="516.17" cy="523.14" r="2.8" fill="#2ca25f"/>
<circle cx="561.30" cy="508.94" r="2.8" fill="#2ca25f"/>
<circle cx="606.43" cy="516.14" r="2.8" fill="#2ca25f"/>
<circle cx="651.57" cy="497.41" r="2.8" fill="#2ca25f"/>
<circle cx="696.70" cy="506.19" r="2.8" fill="#2ca25f"/>
<circle cx="741.83" cy="498.00" r="2.8" fill="#2ca25f"/>
<circle cx="786.96" cy="503.31" r="2.8" fill="#2ca25f"/>
<circle cx="832.09" cy="499.09" r="2.8" fill="#2ca25f"/>
<circle cx="877.22" cy="505.12" r="2.8" fill="#2ca25f"/>
<circle cx="922.35" cy="508.20" r="2.8" fill="#2ca25f"/>
<circle cx="967.48" cy="517.59" r="2.8" fill="#2ca25f"/>
<circle cx="1012.61" cy="521.61" r="2.8" fill="#2ca25f"/>
<circle cx="1057.74" cy="519.16" r="2.8" fill="#2ca25f"/>
<circle cx="1102.87" cy="535.03" r="2.8" fill="#2ca25f"/>
<circle cx="1148.00" cy="522.30" r="2.8" fill="#2ca25f"/>
<rect x="976.00" y="444.00" width="12" height="12" fill="#2f6fdb"/>
<text x="994.00" y="454.00" font-family="Arial, Helvetica, sans-serif" font-size="12" text-anchor="start" font-weight="normal" fill="#374151">wikitext</text>
<rect x="976.00" y="464.00" width="12" height="12" fill="#d94841"/>
<text x="994.00" y="474.00" font-family="Arial, Helvetica, sans-serif" font-size="12" text-anchor="start" font-weight="normal" fill="#374151">winogrande</text>
<rect x="976.00" y="484.00" width="12" height="12" fill="#2ca25f"/>
<text x="994.00" y="494.00" font-family="Arial, Helvetica, sans-serif" font-size="12" text-anchor="start" font-weight="normal" fill="#374151">hellaswag</text>
</svg>