<?xml version="1.0" encoding="UTF-8"?>
<svg xmlns="http://www.w3.org/2000/svg" width="1200" height="778" viewBox="0 0 1200 778" role="img" aria-label="OPT-350M relative difference from Wikitext">
<title>OPT-350M relative difference from Wikitext</title>
<rect width="100%" height="100%" fill="#ffffff"/>
<text x="24.00" y="34.00" font-family="Arial, Helvetica, sans-serif" font-size="22" text-anchor="start" font-weight="bold" fill="#1f2937">OPT-350M relative difference from Wikitext</text>
<rect x="24.00" y="60.00" width="1152.00" height="320.00" fill="#fafafa" stroke="#e5e7eb"/>
<text x="36.00" y="84.00" font-family="Arial, Helvetica, sans-serif" font-size="18" text-anchor="start" font-weight="bold" fill="#1f2937">key</text>
<text x="36.00" y="104.00" font-family="Arial, Helvetica, sans-serif" font-size="12" text-anchor="start" font-weight="normal" fill="#4b5563">Mean abs_max relative diff from Wikitext</text>
<line x1="110.00" y1="312.00" x2="1148.00" y2="312.00" stroke="#9ca3af" stroke-width="1.2" stroke-dasharray="5 4"/>
<line x1="110.00" y1="312.00" x2="110.00" y2="318.00" stroke="#6b7280" stroke-width="1"/>
<text x="110.00" y="334.00" font-family="Arial, Helvetica, sans-serif" font-size="10" text-anchor="middle" font-weight="normal" fill="#6b7280">0</text>
<line x1="245.39" y1="312.00" x2="245.39" y2="318.00" stroke="#6b7280" stroke-width="1"/>
<text x="245.39" y="334.00" font-family="Arial, Helvetica, sans-serif" font-size="10" text-anchor="middle" font-weight="normal" fill="#6b7280">3</text>
<line x1="380.78" y1="312.00" x2="380.78" y2="318.00" stroke="#6b7280" stroke-width="1"/>
<text x="380.78" y="334.00" font-family="Arial, Helvetica, sans-serif" font-size="10" text-anchor="middle" font-weight="normal" fill="#6b7280">6</text>
<line x1="516.17" y1="312.00" x2="516.17" y2="318.00" stroke="#6b7280" stroke-width="1"/>
<text x="516.17" y="334.00" font-family="Arial, Helvetica, sans-serif" font-size="10" text-anchor="middle" font-weight="normal" fill="#6b7280">9</text>
<line x1="651.57" y1="312.00" x2="651.57" y2="318.00" stroke="#6b7280" stroke-width="1"/>
<text x="651.57" y="334.00" font-family="Arial, Helvetica, sans-serif" font-size="10" text-anchor="middle" font-weight="normal" fill="#6b7280">12</text>
<line x1="786.96" y1="312.00" x2="786.96" y2="318.00" stroke="#6b7280" stroke-width="1"/>
<text x="786.96" y="334.00" font-family="Arial, Helvetica, sans-serif" font-size="10" text-anchor="middle" font-weight="normal" fill="#6b7280">15</text>
<line x1="922.35" y1="312.00" x2="922.35" y2="318.00" stroke="#6b7280" stroke-width="1"/>
<text x="922.35" y="334.00" font-family="Arial, Helvetica, sans-serif" font-size="10" text-anchor="middle" font-weight="normal" fill="#6b7280">18</text>
<line x1="1057.74" y1="312.00" x2="1057.74" y2="318.00" stroke="#6b7280" stroke-width="1"/>
<text x="1057.74" y="334.00" font-family="Arial, Helvetica, sans-serif" font-size="10" text-anchor="middle" font-weight="normal" fill="#6b7280">21</text>
<line x1="1148.00" y1="312.00" x2="1148.00" y2="318.00" stroke="#6b7280" stroke-width="1"/>
<text x="1148.00" y="334.00" font-family="Arial, Helvetica, sans-serif" font-size="10" text-anchor="middle" font-weight="normal" fill="#6b7280">23</text>
<line x1="105.00" y1="312.00" x2="110.00" y2="312.00" stroke="#6b7280" stroke-width="1"/>
<line x1="110.00" y1="312.00" x2="1148.00" y2="312.00" stroke="#e5e7eb" stroke-width="1"/>
<text x="100.00" y="316.00" font-family="Arial, Helvetica, sans-serif" font-size="10" text-anchor="end" font-weight="normal" fill="#6b7280">0.00</text>
<line x1="105.00" y1="263.00" x2="110.00" y2="263.00" stroke="#6b7280" stroke-width="1"/>
<line x1="110.00" y1="263.00" x2="1148.00" y2="263.00" stroke="#e5e7eb" stroke-width="1"/>
<text x="100.00" y="267.00" font-family="Arial, Helvetica, sans-serif" font-size="10" text-anchor="end" font-weight="normal" fill="#6b7280">3.86</text>
<line x1="105.00" y1="214.00" x2="110.00" y2="214.00" stroke="#6b7280" stroke-width="1"/>
<line x1="110.00" y1="214.00" x2="1148.00" y2="214.00" stroke="#e5e7eb" stroke-width="1"/>
<text x="100.00" y="218.00" font-family="Arial, Helvetica, sans-serif" font-size="10" text-anchor="end" font-weight="normal" fill="#6b7280">7.71</text>
<line x1="105.00" y1="165.00" x2="110.00" y2="165.00" stroke="#6b7280" stroke-width="1"/>
<line x1="110.00" y1="165.00" x2="1148.00" y2="165.00" stroke="#e5e7eb" stroke-width="1"/>
<text x="100.00" y="169.00" font-family="Arial, Helvetica, sans-serif" font-size="10" text-anchor="end" font-weight="normal" fill="#6b7280">11.57</text>
<line x1="105.00" y1="116.00" x2="110.00" y2="116.00" stroke="#6b7280" stroke-width="1"/>
<line x1="110.00" y1="116.00" x2="1148.00" y2="116.00" stroke="#e5e7eb" stroke-width="1"/>
<text x="100.00" y="120.00" font-family="Arial, Helvetica, sans-serif" font-size="10" text-anchor="end" font-weight="normal" fill="#6b7280">15.42</text>
<polyline fill="none" stroke="#2f6fdb" stroke-width="2.5" stroke-linejoin="round" stroke-linecap="round" points="110.00,312.00 155.13,312.00 200.26,312.00 245.39,312.00 290.52,312.00 335.65,312.00 380.78,312.00 425.91,312.00 471.04,312.00 516.17,312.00 561.30,312.00 606.43,312.00 651.57,312.00 696.70,312.00 741.83,312.00 786.96,312.00 832.09,312.00 877.22,312.00 922.35,312.00 967.48,312.00 1012.61,312.00 1057.74,312.00 1102.87,312.00 1148.00,312.00"/>
<circle cx="110.00" cy="312.00" r="2.8" fill="#2f6fdb"/>
<circle cx="155.13" cy="312.00" r="2.8" fill="#2f6fdb"/>
<circle cx="200.26" cy="312.00" r="2.8" fill="#2f6fdb"/>
<circle cx="245.39" cy="312.00" r="2.8" fill="#2f6fdb"/>
<circle cx="290.52" cy="312.00" r="2.8" fill="#2f6fdb"/>
<circle cx="335.65" cy="312.00" r="2.8" fill="#2f6fdb"/>
<circle cx="380.78" cy="312.00" r="2.8" fill="#2f6fdb"/>
<circle cx="425.91" cy="312.00" r="2.8" fill="#2f6fdb"/>
<circle cx="471.04" cy="312.00" r="2.8" fill="#2f6fdb"/>
<circle cx="516.17" cy="312.00" r="2.8" fill="#2f6fdb"/>
<circle cx="561.30" cy="312.00" r="2.8" fill="#2f6fdb"/>
<circle cx="606.43" cy="312.00" r="2.8" fill="#2f6fdb"/>
<circle cx="651.57" cy="312.00" r="2.8" fill="#2f6fdb"/>
<circle cx="696.70" cy="312.00" r="2.8" fill="#2f6fdb"/>
<circle cx="741.83" cy="312.00" r="2.8" fill="#2f6fdb"/>
<circle cx="786.96" cy="312.00" r="2.8" fill="#2f6fdb"/>
<circle cx="832.09" cy="312.00" r="2.8" fill="#2f6fdb"/>
<circle cx="877.22" cy="312.00" r="2.8" fill="#2f6fdb"/>
<circle cx="922.35" cy="312.00" r="2.8" fill="#2f6fdb"/>
<circle cx="967.48" cy="312.00" r="2.8" fill="#2f6fdb"/>
<circle cx="1012.61" cy="312.00" r="2.8" fill="#2f6fdb"/>
<circle cx="1057.74" cy="312.00" r="2.8" fill="#2f6fdb"/>
<circle cx="1102.87" cy="312.00" r="2.8" fill="#2f6fdb"/>
<circle cx="1148.00" cy="312.00" r="2.8" fill="#2f6fdb"/>
<polyline fill="none" stroke="#d94841" stroke-width="2.5" stroke-linejoin="round" stroke-linecap="round" points="110.00,297.31 155.13,310.15 200.26,299.40 245.39,309.95 290.52,309.32 335.65,306.08 380.78,308.10 425.91,298.18 471.04,116.00 516.17,308.65 561.30,310.53 606.43,308.37 651.57,309.65 696.70,309.05 741.83,310.50 786.96,307.54 832.09,310.42 877.22,307.92 922.35,287.02 967.48,310.10 1012.61,306.02 1057.74,309.38 1102.87,307.52 1148.00,308.12"/>
<circle cx="110.00" cy="297.31" r="2.8" fill="#d94841"/>
<circle cx="155.13" cy="310.15" r="2.8" fill="#d94841"/>
<circle cx="200.26" cy="299.40" r="2.8" fill="#d94841"/>
<circle cx="245.39" cy="309.95" r="2.8" fill="#d94841"/>
<circle cx="290.52" cy="309.32" r="2.8" fill="#d94841"/>
<circle cx="335.65" cy="306.08" r="2.8" fill="#d94841"/>
<circle cx="380.78" cy="308.10" r="2.8" fill="#d94841"/>
<circle cx="425.91" cy="298.18" r="2.8" fill="#d94841"/>
<circle cx="471.04" cy="116.00" r="2.8" fill="#d94841"/>
<circle cx="516.17" cy="308.65" r="2.8" fill="#d94841"/>
<circle cx="561.30" cy="310.53" r="2.8" fill="#d94841"/>
<circle cx="606.43" cy="308.37" r="2.8" fill="#d94841"/>
<circle cx="651.57" cy="309.65" r="2.8" fill="#d94841"/>
<circle cx="696.70" cy="309.05" r="2.8" fill="#d94841"/>
<circle cx="741.83" cy="310.50" r="2.8" fill="#d94841"/>
<circle cx="786.96" cy="307.54" r="2.8" fill="#d94841"/>
<circle cx="832.09" cy="310.42" r="2.8" fill="#d94841"/>
<circle cx="877.22" cy="307.92" r="2.8" fill="#d94841"/>
<circle cx="922.35" cy="287.02" r="2.8" fill="#d94841"/>
<circle cx="967.48" cy="310.10" r="2.8" fill="#d94841"/>
<circle cx="1012.61" cy="306.02" r="2.8" fill="#d94841"/>
<circle cx="1057.74" cy="309.38" r="2.8" fill="#d94841"/>
<circle cx="1102.87" cy="307.52" r="2.8" fill="#d94841"/>
<circle cx="1148.00" cy="308.12" r="2.8" fill="#d94841"/>
<polyline fill="none" stroke="#2ca25f" stroke-width="2.5" stroke-linejoin="round" stroke-linecap="round" points="110.00,302.54 155.13,310.72 200.26,299.93 245.39,309.19 290.52,309.86 335.65,302.69 380.78,309.15 425.91,293.81 471.04,265.07 516.17,306.59 561.30,311.30 606.43,308.77 651.57,307.99 696.70,306.48 741.83,310.04 786.96,308.71 832.09,309.23 877.22,306.66 922.35,281.17 967.48,310.32 1012.61,310.00 1057.74,308.99 1102.87,308.56 1148.00,310.81"/>
<circle cx="110.00" cy="302.54" r="2.8" fill="#2ca25f"/>
<circle cx="155.13" cy="310.72" r="2.8" fill="#2ca25f"/>
<circle cx="200.26" cy="299.93" r="2.8" fill="#2ca25f"/>
<circle cx="245.39" cy="309.19" r="2.8" fill="#2ca25f"/>
<circle cx="290.52" cy="309.86" r="2.8" fill="#2ca25f"/>
<circle cx="335.65" cy="302.69" r="2.8" fill="#2ca25f"/>
<circle cx="380.78" cy="309.15" r="2.8" fill="#2ca25f"/>
<circle cx="425.91" cy="293.81" r="2.8" fill="#2ca25f"/>
<circle cx="471.04" cy="265.07" r="2.8" fill="#2ca25f"/>
<circle cx="516.17" cy="306.59" r="2.8" fill="#2ca25f"/>
<circle cx="561.30" cy="311.30" r="2.8" fill="#2ca25f"/>
<circle cx="606.43" cy="308.77" r="2.8" fill="#2ca25f"/>
<circle cx="651.57" cy="307.99" r="2.8" fill="#2ca25f"/>
<circle cx="696.70" cy="306.48" r="2.8" fill="#2ca25f"/>
<circle cx="741.83" cy="310.04" r="2.8" fill="#2ca25f"/>
<circle cx="786.96" cy="308.71" r="2.8" fill="#2ca25f"/>
<circle cx="832.09" cy="309.23" r="2.8" fill="#2ca25f"/>
<circle cx="877.22" cy="306.66" r="2.8" fill="#2ca25f"/>
<circle cx="922.35" cy="281.17" r="2.8" fill="#2ca25f"/>
<circle cx="967.48" cy="310.32" r="2.8" fill="#2ca25f"/>
<circle cx="1012.61" cy="310.00" r="2.8" fill="#2ca25f"/>
<circle cx="1057.74" cy="308.99" r="2.8" fill="#2ca25f"/>
<circle cx="1102.87" cy="308.56" r="2.8" fill="#2ca25f"/>
<circle cx="1148.00" cy="310.81" r="2.8" fill="#2ca25f"/>
<rect x="976.00" y="76.00" width="12" height="12" fill="#2f6fdb"/>
<text x="994.00" y="86.00" font-family="Arial, Helvetica, sans-serif" font-size="12" text-anchor="start" font-weight="normal" fill="#374151">wikitext</text>
<rect x="976.00" y="96.00" width="12" height="12" fill="#d94841"/>
<text x="994.00" y="106.00" font-family="Arial, Helvetica, sans-serif" font-size="12" text-anchor="start" font-weight="normal" fill="#374151">winogrande</text>
<rect x="976.00" y="116.00" width="12" height="12" fill="#2ca25f"/>
<text x="994.00" y="126.00" font-family="Arial, Helvetica, sans-serif" font-size="12" text-anchor="start" font-weight="normal" fill="#374151">hellaswag</text>
<rect x="24.00" y="428.00" width="1152.00" height="320.00" fill="#fafafa" stroke="#e5e7eb"/>
<text x="36.00" y="452.00" font-family="Arial, Helvetica, sans-serif" font-size="18" text-anchor="start" font-weight="bold" fill="#1f2937">value</text>
<text x="36.00" y="472.00" font-family="Arial, Helvetica, sans-serif" font-size="12" text-anchor="start" font-weight="normal" fill="#4b5563">Mean abs_max relative diff from Wikitext</text>
<line x1="110.00" y1="680.00" x2="1148.00" y2="680.00" stroke="#9ca3af" stroke-width="1.2" stroke-dasharray="5 4"/>
<line x1="110.00" y1="680.00" x2="110.00" y2="686.00" stroke="#6b7280" stroke-width="1"/>
<text x="110.00" y="702.00" font-family="Arial, Helvetica, sans-serif" font-size="10" text-anchor="middle" font-weight="normal" fill="#6b7280">0</text>
<line x1="245.39" y1="680.00" x2="245.39" y2="686.00" stroke="#6b7280" stroke-width="1"/>
<text x="245.39" y="702.00" font-family="Arial, Helvetica, sans-serif" font-size="10" text-anchor="middle" font-weight="normal" fill="#6b7280">3</text>
<line x1="380.78" y1="680.00" x2="380.78" y2="686.00" stroke="#6b7280" stroke-width="1"/>
<text x="380.78" y="702.00" font-family="Arial, Helvetica, sans-serif" font-size="10" text-anchor="middle" font-weight="normal" fill="#6b7280">6</text>
<line x1="516.17" y1="680.00" x2="516.17" y2="686.00" stroke="#6b7280" stroke-width="1"/>
<text x="516.17" y="702.00" font-family="Arial, Helvetica, sans-serif" font-size="10" text-anchor="middle" font-weight="normal" fill="#6b7280">9</text>
<line x1="651.57" y1="680.00" x2="651.57" y2="686.00" stroke="#6b7280" stroke-width="1"/>
<text x="651.57" y="702.00" font-family="Arial, Helvetica, sans-serif" font-size="10" text-anchor="middle" font-weight="normal" fill="#6b7280">12</text>
<line x1="786.96" y1="680.00" x2="786.96" y2="686.00" stroke="#6b7280" stroke-width="1"/>
<text x="786.96" y="702.00" font-family="Arial, Helvetica, sans-serif" font-size="10" text-anchor="middle" font-weight="normal" fill="#6b7280">15</text>
<line x1="922.35" y1="680.00" x2="922.35" y2="686.00" stroke="#6b7280" stroke-width="1"/>
<text x="922.35" y="702.00" font-family="Arial, Helvetica, sans-serif" font-size="10" text-anchor="middle" font-weight="normal" fill="#6b7280">18</text>
<line x1="1057.74" y1="680.00" x2="1057.74" y2="686.00" stroke="#6b7280" stroke-width="1"/>
<text x="1057.74" y="702.00" font-family="Arial, Helvetica, sans-serif" font-size="10" text-anchor="middle" font-weight="normal" fill="#6b7280">21</text>
<line x1="1148.00" y1="680.00" x2="1148.00" y2="686.00" stroke="#6b7280" stroke-width="1"/>
<text x="1148.00" y="702.00" font-family="Arial, Helvetica, sans-serif" font-size="10" text-anchor="middle" font-weight="normal" fill="#6b7280">23</text>
<line x1="105.00" y1="680.00" x2="110.00" y2="680.00" stroke="#6b7280" stroke-width="1"/>
<line x1="110.00" y1="680.00" x2="1148.00" y2="680.00" stroke="#e5e7eb" stroke-width="1"/>
<text x="100.00" y="684.00" font-family="Arial, Helvetica, sans-serif" font-size="10" text-anchor="end" font-weight="normal" fill="#6b7280">0.00</text>
<line x1="105.00" y1="631.00" x2="110.00" y2="631.00" stroke="#6b7280" stroke-width="1"/>
<line x1="110.00" y1="631.00" x2="1148.00" y2="631.00" stroke="#e5e7eb" stroke-width="1"/>
<text x="100.00" y="635.00" font-family="Arial, Helvetica, sans-serif" font-size="10" text-anchor="end" font-weight="normal" fill="#6b7280">3.25</text>
<line x1="105.00" y1="582.00" x2="110.00" y2="582.00" stroke="#6b7280" stroke-width="1"/>
<line x1="110.00" y1="582.00" x2="1148.00" y2="582.00" stroke="#e5e7eb" stroke-width="1"/>
<text x="100.00" y="586.00" font-family="Arial, Helvetica, sans-serif" font-size="10" text-anchor="end" font-weight="normal" fill="#6b7280">6.49</text>
<line x1="105.00" y1="533.00" x2="110.00" y2="533.00" stroke="#6b7280" stroke-width="1"/>
<line x1="110.00" y1="533.00" x2="1148.00" y2="533.00" stroke="#e5e7eb" stroke-width="1"/>
<text x="100.00" y="537.00" font-family="Arial, Helvetica, sans-serif" font-size="10" text-anchor="end" font-weight="normal" fill="#6b7280">9.74</text>
<line x1="105.00" y1="484.00" x2="110.00" y2="484.00" stroke="#6b7280" stroke-width="1"/>
<line x1="110.00" y1="484.00" x2="1148.00" y2="484.00" stroke="#e5e7eb" stroke-width="1"/>
<text x="100.00" y="488.00" font-family="Arial, Helvetica, sans-serif" font-size="10" text-anchor="end" font-weight="normal" fill="#6b7280">12.98</text>
<polyline fill="none" stroke="#2f6fdb" stroke-width="2.5" stroke-linejoin="round" stroke-linecap="round" points="110.00,680.00 155.13,680.00 200.26,680.00 245.39,680.00 290.52,680.00 335.65,680.00 380.78,680.00 425.91,680.00 471.04,680.00 516.17,680.00 561.30,680.00 606.43,680.00 651.57,680.00 696.70,680.00 741.83,680.00 786.96,680.00 832.09,680.00 877.22,680.00 922.35,680.00 967.48,680.00 1012.61,680.00 1057.74,680.00 1102.87,680.00 1148.00,680.00"/>
<circle cx="110.00" cy="680.00" r="2.8" fill="#2f6fdb"/>
<circle cx="155.13" cy="680.00" r="2.8" fill="#2f6fdb"/>
<circle cx="200.26" cy="680.00" r="2.8" fill="#2f6fdb"/>
<circle cx="245.39" cy="680.00" r="2.8" fill="#2f6fdb"/>
<circle cx="290.52" cy="680.00" r="2.8" fill="#2f6fdb"/>
<circle cx="335.65" cy="680.00" r="2.8" fill="#2f6fdb"/>
<circle cx="380.78" cy="680.00" r="2.8" fill="#2f6fdb"/>
<circle cx="425.91" cy="680.00" r="2.8" fill="#2f6fdb"/>
<circle cx="471.04" cy="680.00" r="2.8" fill="#2f6fdb"/>
<circle cx="516.17" cy="680.00" r="2.8" fill="#2f6fdb"/>
<circle cx="561.30" cy="680.00" r="2.8" fill="#2f6fdb"/>
<circle cx="606.43" cy="680.00" r="2.8" fill="#2f6fdb"/>
<circle cx="651.57" cy="680.00" r="2.8" fill="#2f6fdb"/>
<circle cx="696.70" cy="680.00" r="2.8" fill="#2f6fdb"/>
<circle cx="741.83" cy="680.00" r="2.8" fill="#2f6fdb"/>
<circle cx="786.96" cy="680.00" r="2.8" fill="#2f6fdb"/>
<circle cx="832.09" cy="680.00" r="2.8" fill="#2f6fdb"/>
<circle cx="877.22" cy="680.00" r="2.8" fill="#2f6fdb"/>
<circle cx="922.35" cy="680.00" r="2.8" fill="#2f6fdb"/>
<circle cx="967.48" cy="680.00" r="2.8" fill="#2f6fdb"/>
<circle cx="1012.61" cy="680.00" r="2.8" fill="#2f6fdb"/>
<circle cx="1057.74" cy="680.00" r="2.8" fill="#2f6fdb"/>
<circle cx="1102.87" cy="680.00" r="2.8" fill="#2f6fdb"/>
<circle cx="1148.00" cy="680.00" r="2.8" fill="#2f6fdb"/>
<polyline fill="none" stroke="#d94841" stroke-width="2.5" stroke-linejoin="round" stroke-linecap="round" points="110.00,675.12 155.13,512.20 200.26,676.65 245.39,674.05 290.52,673.57 335.65,672.90 380.78,674.15 425.91,674.89 471.04,672.84 516.17,675.27 561.30,639.43 606.43,673.91 651.57,673.10 696.70,671.26 741.83,674.52 786.96,673.89 832.09,671.79 877.22,672.64 922.35,673.38 967.48,672.70 1012.61,673.78 1057.74,677.43 1102.87,675.12 1148.00,673.41"/>
<circle cx="110.00" cy="675.12" r="2.8" fill="#d94841"/>
<circle cx="155.13" cy="512.20" r="2.8" fill="#d94841"/>
<circle cx="200.26" cy="676.65" r="2.8" fill="#d94841"/>
<circle cx="245.39" cy="674.05" r="2.8" fill="#d94841"/>
<circle cx="290.52" cy="673.57" r="2.8" fill="#d94841"/>
<circle cx="335.65" cy="672.90" r="2.8" fill="#d94841"/>
<circle cx="380.78" cy="674.15" r="2.8" fill="#d94841"/>
<circle cx="425.91" cy="674.89" r="2.8" fill="#d94841"/>
<circle cx="471.04" cy="672.84" r="2.8" fill="#d94841"/>
<circle cx="516.17" cy="675.27" r="2.8" fill="#d94841"/>
<circle cx="561.30" cy="639.43" r="2.8" fill="#d94841"/>
<circle cx="606.43" cy="673.91" r="2.8" fill="#d94841"/>
<circle cx="651.57" cy="673.10" r="2.8" fill="#d94841"/>
<circle cx="696.70" cy="671.26" r="2.8" fill="#d94841"/>
<circle cx="741.83" cy="674.52" r="2.8" fill="#d94841"/>
<circle cx="786.96" cy="673.89" r="2.8" fill="#d94841"/>
<circle cx="832.09" cy="671.79" r="2.8" fill="#d94841"/>
<circle cx="877.22" cy="672.64" r="2.8" fill="#d94841"/>
<circle cx="922.35" cy="673.38" r="2.8" fill="#d94841"/>
<circle cx="967.48" cy="672.70" r="2.8" fill="#d94841"/>
<circle cx="1012.61" cy="673.78" r="2.8" fill="#d94841"/>
<circle cx="1057.74" cy="677.43" r="2.8" fill="#d94841"/>
<circle cx="1102.87" cy="675.12" r="2.8" fill="#d94841"/>
<circle cx="1148.00" cy="673.41" r="2.8" fill="#d94841"/>
<polyline fill="none" stroke="#2ca25f" stroke-width="2.5" stroke-linejoin="round" stroke-linecap="round" points="110.00,673.89 155.13,484.00 200.26,673.86 245.39,671.56 290.52,675.63 335.65,676.91 380.78,667.76 425.91,675.96 471.04,678.38 516.17,678.80 561.30,673.05 606.43,676.81 651.57,674.17 696.70,673.55 741.83,673.27 786.96,673.73 832.09,676.54 877.22,673.19 922.35,675.21 967.48,673.52 1012.61,678.24 1057.74,678.91 1102.87,677.74 1148.00,673.76"/>
<circle cx="110.00" cy="673.89" r="2.8" fill="#2ca25f"/>
<circle cx="155.13" cy="484.00" r="2.8" fill="#2ca25f"/>
<circle cx="200.26" cy="673.86" r="2.8" fill="#2ca25f"/>
<circle cx="245.39" cy="671.56" r="2.8" fill="#2ca25f"/>
<circle cx="290.52" cy="675.63" r="2.8" fill="#2ca25f"/>
<circle cx="335.65" cy="676.91" r="2.8" fill="#2ca25f"/>
<circle cx="380.78" cy="667.76" r="2.8" fill="#2ca25f"/>
<circle cx="425.91" cy="675.96" r="2.8" fill="#2ca25f"/>
<circle cx="471.04" cy="678.38" r="2.8" fill="#2ca25f"/>
<circle cx="516.17" cy="678.80" r="2.8" fill="#2ca25f"/>
<circle cx="561.30" cy="673.05" r="2.8" fill="#2ca25f"/>
<circle cx="606.43" cy="676.81" r="2.8" fill="#2ca25f"/>
<circle cx="651.57" cy="674.17" r="2.8" fill="#2ca25f"/>
<circle cx="696.70" cy="673.55" r="2.8" fill="#2ca25f"/>
<circle cx="741.83" cy="673.27" r="2.8" fill="#2ca25f"/>
<circle cx="786.96" cy="673.73" r="2.8" fill="#2ca25f"/>
<circle cx="832.09" cy="676.54" r="2.8" fill="#2ca25f"/>
<circle cx="877.22" cy="673.19" r="2.8" fill="#2ca25f"/>
<circle cx="922.35" cy="675.21" r="2.8" fill="#2ca25f"/>
<circle cx="967.48" cy="673.52" r="2.8" fill="#2ca25f"/>
<circle cx="1012.61" cy="678.24" r="2.8" fill="#2ca25f"/>
<circle cx="1057.74" cy="678.91" r="2.8" fill="#2ca25f"/>
<circle cx="1102.87" cy="677.74" r="2.8" fill="#2ca25f"/>
<circle cx="1148.00" cy="673.76" r="2.8" fill="#2ca25f"/>
<rect x="976.00" y="444.00" width="12" height="12" fill="#2f6fdb"/>
<text x="994.00" y="454.00" font-family="Arial, Helvetica, sans-serif" font-size="12" text-anchor="start" font-weight="normal" fill="#374151">wikitext</text>
<rect x="976.00" y="464.00" width="12" height="12" fill="#d94841"/>
<text x="994.00" y="474.00" font-family="Arial, Helvetica, sans-serif" font-size="12" text-anchor="start" font-weight="normal" fill="#374151">winogrande</text>
<rect x="976.00" y="484.00" width="12" height="12" fill="#2ca25f"/>
<text x="994.00" y="494.00" font-family="Arial, Helvetica, sans-serif" font-size="12" text-anchor="start" font-weight="normal" fill="#374151">hellaswag</text>
</svg>